<?xml version="1.0" standalone="no"?><svg xmlns="http://www.w3.org/2000/svg" viewBox="0 0 1440 320"><path fill="#042f2e" fill-opacity="1" d="M0,192L30,160C60,128,120,64,180,53.3C240,43,300,85,360,106.7C420,128,480,128,540,160C600,192,660,256,720,288C780,320,840,320,900,277.3C960,235,1020,149,1080,106.7C1140,64,1200,64,1260,90.7C1320,117,1380,171,1410,197.3L1440,224L1440,320L1410,320C1380,320,1320,320,1260,320C1200,320,1140,320,1080,320C1020,320,960,320,900,320C840,320,780,320,720,320C660,320,600,320,540,320C480,320,420,320,360,320C300,320,240,320,180,320C120,320,60,320,30,320L0,320Z"></path></svg>